# xmcd
#
# Track frame offsets:
# 150
# 14208
# 29285
# 42346
# 56803
# 69496
# 87766
# 107710
# 122103
# 135589
# 149250
# 161770
# 177518
# 190715
# 203747
# 218068
# 235158
# 250260
# 267363
# 283387
#
# Disc length: 3957 seconds
#
#
# Revision: 0
# Processed by: cddbd v1.5.2PL0 Copyright (c) Steve Scherf et al.
# Submitted via: FreeRIP 2.95 
#
DISCID=330f7314
DTITLE=As Preferidas do Gauchinho e Ronaldo - 
DYEAR=1900
DGENRE=Country
TTITLE0=Apaixonado
TTITLE1=Tragedia dos Ciganos
TTITLE2=Cerveja Quente
TTITLE3=Sonho Cruel
TTITLE4=Escuta Minha Cancao
TTITLE5=Gente Que Ouve a Gente
TTITLE6=Carta de Filho
TTITLE7=Cachorro Amigo
TTITLE8=Ilusao Perdida
TTITLE9=Recordando o Mato Grosso
TTITLE10=Pedaco de Poema
TTITLE11=O Amor Que eu Sonhei
TTITLE12=Mala Amarela
TTITLE13=A Volta do Seresteiro
TTITLE14=Foto Colorida
TTITLE15=Romper da Aurora
TTITLE16=Maezinha Querida
TTITLE17=Negrinho Parafuso
TTITLE18=Anel de Brilhante
TTITLE19=Nao Posso Casar Contigo
EXTD=
EXTT0=
EXTT1=
EXTT2=
EXTT3=
EXTT4=
EXTT5=
EXTT6=
EXTT7=
EXTT8=
EXTT9=
EXTT10=
EXTT11=
EXTT12=
EXTT13=
EXTT14=
EXTT15=
EXTT16=
EXTT17=
EXTT18=
EXTT19=
PLAYORDER=
